<svg xmlns="http://www.w3.org/2000/svg" viewBox="0 0 74 42.747">
  <g id="dji-logo-vector" transform="translate(-25.689 -153)">
    <path id="Path_1" data-name="Path 1" d="M248.976,243.481,254.44,220.8H242.724l-4.995,20.337c-.728,3.971-4.983,5.821-8,5.871h-8.3l-2.824,8.177h17.451c4.3,0,10.656-2.2,12.925-11.7" transform="translate(-169.119 -59.438)"/>
    <path id="Path_2" data-name="Path 2" d="M55.266,176.051,60.766,153H72.828l-6.265,26.22c-1.209,5.069-4.97,6.278-8.448,6.278h-27.8c-3.059,0-5.624-1.307-4.243-7.153l2.5-10.458c1.27-5.3,5.217-6.524,8.066-6.524h19.4L54.476,167.9h-9.9c-1.455,0-2.257.321-2.664,2.01l-1.6,6.672c-.567,2.393.271,2.565,2.023,2.565h9.077c1.677.025,3.133-.086,3.86-3.1"/>
    <path id="Path_3" data-name="Path 3" d="M490.286,220.9,484.6,245.024h11.729L502,220.9Z" transform="translate(-402.313 -59.526)"/>
  </g>
</svg>
